<?xml version="1.0" standalone="no"?>
<!DOCTYPE svg PUBLIC "-//W3C//DTD SVG 20010904//EN"
 "http://www.w3.org/TR/2001/REC-SVG-20010904/DTD/svg10.dtd">
<svg version="1.0" xmlns="http://www.w3.org/2000/svg"
 width="192.000000pt" height="192.000000pt" viewBox="0 0 192.000000 192.000000"
 preserveAspectRatio="xMidYMid meet">
<metadata>
Created by potrace 1.11, written by Peter Selinger 2001-2013
</metadata>
<g transform="translate(0.000000,192.000000) scale(0.100000,-0.100000)"
fill="#000000" stroke="none">
<path d="M2 1463 l3 -458 455 0 455 0 1 458 0 457 -458 0 -458 0 2 -457z"/>
<path d="M1010 1462 l0 -458 455 0 455 -1 0 459 0 458 -455 0 -455 0 0 -458z"/>
<path d="M0 455 l0 -455 458 0 458 0 0 455 0 455 -458 0 -458 0 0 -455z"/>
<path d="M1010 455 l0 -455 455 0 455 0 0 455 0 455 -455 0 -455 0 0 -455z"/>
</g>
</svg>
