<?xml version="1.0" standalone="no"?>
<!DOCTYPE svg PUBLIC "-//W3C//DTD SVG 20010904//EN"
 "http://www.w3.org/TR/2001/REC-SVG-20010904/DTD/svg10.dtd">
<svg version="1.0" xmlns="http://www.w3.org/2000/svg"
 width="500.000000pt" height="500.000000pt" viewBox="0 0 500.000000 500.000000"
 preserveAspectRatio="xMidYMid meet">
<metadata>
Created by potrace 1.11, written by Peter Selinger 2001-2013
</metadata>
<g transform="translate(0.000000,500.000000) scale(0.100000,-0.100000)"
fill="#000000" stroke="none">
<path d="M211 3695 c0 -602 3 -1095 7 -1096 18 -3 2168 -4 2177 -2 7 2 10 376
10 1096 l-1 1092 -1096 2 -1097 2 0 -1094z"/>
<path d="M2595 3702 c1 -598 3 -1091 7 -1097 4 -7 379 -10 1095 -10 l1088 1 3
1097 2 1097 -1097 0 -1098 0 0 -1088z"/>
<path d="M210 1307 l0 -1097 1097 2 1097 3 1 1088 c0 697 -4 1091 -10 1095 -5
3 -499 6 -1097 6 l-1088 1 0 -1098z"/>
<path d="M2606 2394 c-8 -7 -11 -336 -10 -1095 l0 -1084 1097 -3 1097 -2 -2
1097 -3 1097 -1084 1 c-759 0 -1088 -3 -1095 -11z"/>
</g>
</svg>
